<svg width="30" height="30" viewBox="0 0 30 30" fill="none" xmlns="http://www.w3.org/2000/svg">
<path fill-rule="evenodd" clip-rule="evenodd" d="M14.6323 3.0779C10.3511 3.0779 6.75338 6.67558 6.75338 10.9568C6.75338 12.1733 7.21573 13.5408 8.02148 14.9732C8.82032 16.3934 9.90349 17.7837 11.0165 19.0203C12.1256 20.2527 13.2391 21.3047 14.0771 22.0496C14.2803 22.2302 14.4667 22.3923 14.6323 22.534C14.7979 22.3923 14.9844 22.2302 15.1875 22.0496C16.0256 21.3047 17.139 20.2527 18.2482 19.0203C19.3612 17.7837 20.4443 16.3934 21.2432 14.9732C22.0489 13.5408 22.5113 12.1733 22.5113 10.9568C22.5113 6.67558 18.9136 3.0779 14.6323 3.0779ZM14.6323 24.259C13.8157 25.309 13.8154 25.3088 13.8151 25.3085L13.8055 25.3011L13.7823 25.2828C13.7624 25.2671 13.7341 25.2447 13.6979 25.2157C13.6255 25.1578 13.5213 25.0736 13.3899 24.9651C13.1271 24.7482 12.7549 24.4338 12.3096 24.0381C11.421 23.2481 10.2322 22.1258 9.03901 20.8C7.84972 19.4786 6.6306 17.9271 5.70272 16.2775C4.78175 14.6402 4.09296 12.8101 4.09296 10.9568C4.09296 5.20627 8.88175 0.41748 14.6323 0.41748C20.3829 0.41748 25.1717 5.20627 25.1717 10.9568C25.1717 12.8101 24.4829 14.6402 23.5619 16.2775C22.634 17.9271 21.4149 19.4786 20.2256 20.8C19.0325 22.1258 17.8437 23.2481 16.955 24.0381C16.5097 24.4338 16.1375 24.7482 15.8748 24.9651C15.7434 25.0736 15.6392 25.1578 15.5667 25.2157C15.5453 25.2329 15.5266 25.2477 15.5109 25.2602C15.5 25.2689 15.4905 25.2764 15.4824 25.2828L15.4591 25.3011L15.4503 25.308C15.45 25.3082 15.449 25.309 14.6323 24.259ZM14.6323 24.259L15.449 25.309C14.9686 25.6826 14.2955 25.6821 13.8151 25.3085L14.6323 24.259ZM10.2324 10.9568C10.2324 8.52682 12.2023 6.55691 14.6323 6.55691C17.0623 6.55691 19.0323 8.52682 19.0323 10.9568C19.0323 13.3869 17.0623 15.3568 14.6323 15.3568C12.2023 15.3568 10.2324 13.3869 10.2324 10.9568ZM14.6323 9.21734C13.6716 9.21734 12.8928 9.99613 12.8928 10.9568C12.8928 11.9176 13.6716 12.6963 14.6323 12.6963C15.593 12.6963 16.3718 11.9176 16.3718 10.9568C16.3718 9.99613 15.593 9.21734 14.6323 9.21734ZM3.17728 20.6652C3.38689 20.1761 3.86781 19.859 4.39993 19.859H6.28822C7.02287 19.859 7.61843 20.4546 7.61843 21.1892C7.61843 21.9239 7.02287 22.5194 6.28822 22.5194H5.27707L3.34753 27.0217H25.9171L23.9876 22.5194H22.9764C22.2418 22.5194 21.6462 21.9239 21.6462 21.1892C21.6462 20.4546 22.2418 19.859 22.9764 19.859H24.8647C25.3968 19.859 25.8778 20.1761 26.0874 20.6652L29.1571 27.8279C29.3332 28.2389 29.2911 28.7109 29.0449 29.0842C28.7988 29.4575 28.3816 29.6821 27.9344 29.6821H1.33022C0.883074 29.6821 0.465848 29.4575 0.219701 29.0842C-0.0264463 28.7109 -0.0685787 28.2389 0.107559 27.8279L3.17728 20.6652Z" fill="#F2F0E4"/>
</svg>
