<svg width="24" height="24" viewBox="0 0 24 24" fill="none" xmlns="http://www.w3.org/2000/svg">
<path d="M21.2836 8.27584L15.3328 7.411L12.6727 2.01803C12.6 1.87037 12.4805 1.75084 12.3328 1.67818C11.9625 1.49537 11.5125 1.64771 11.3274 2.01803L8.6672 7.411L2.71642 8.27584C2.55236 8.29928 2.40236 8.37662 2.28751 8.49381C2.14867 8.63651 2.07217 8.8285 2.0748 9.02758C2.07744 9.22666 2.15901 9.41655 2.30158 9.55553L6.60705 13.7532L5.58986 19.6805C5.566 19.8184 5.58126 19.9602 5.6339 20.0899C5.68654 20.2195 5.77445 20.3318 5.88767 20.4141C6.00089 20.4963 6.13489 20.5452 6.27447 20.5551C6.41404 20.5651 6.55362 20.5357 6.67736 20.4704L12 17.6719L17.3227 20.4704C17.468 20.5477 17.6367 20.5735 17.7985 20.5454C18.2063 20.4751 18.4805 20.0883 18.4102 19.6805L17.393 13.7532L21.6985 9.55553C21.8156 9.44069 21.893 9.29069 21.9164 9.12662C21.9797 8.71647 21.6938 8.33678 21.2836 8.27584Z" fill="#FFCB45"/>
</svg>
