<svg width="139" height="133" viewBox="0 0 139 133" fill="none" xmlns="http://www.w3.org/2000/svg">
<g clip-path="url(#clip0_1_286)">
<path d="M3.6591 96.7766C2.57044 96.7766 1.68591 97.6665 1.68591 98.7601C1.68591 99.8537 2.57044 100.744 3.6591 100.744C4.74775 100.744 5.63229 99.8537 5.63229 98.7601C5.63229 97.6665 4.74775 96.7766 3.6591 96.7766Z" fill="#FFD130"/>
<path d="M37.4225 100.744C38.5123 100.744 39.3957 99.8556 39.3957 98.7601C39.3957 97.6646 38.5123 96.7766 37.4225 96.7766C36.3327 96.7766 35.4493 97.6646 35.4493 98.7601C35.4493 99.8556 36.3327 100.744 37.4225 100.744Z" fill="#FFD130"/>
<path d="M20.5408 96.7766C19.4521 96.7766 18.5676 97.6665 18.5676 98.7601C18.5676 99.8537 19.4521 100.744 20.5408 100.744C21.6294 100.744 22.514 99.8537 22.514 98.7601C22.514 97.6665 21.6294 96.7766 20.5408 96.7766Z" fill="#FFD130"/>
<path d="M20.2611 80.6523C19.1724 80.6523 18.2879 81.5423 18.2879 82.6358C18.2879 83.7294 19.1724 84.6193 20.2611 84.6193C21.3497 84.6193 22.2342 83.7294 22.2342 82.6358C22.2342 81.5423 21.3497 80.6523 20.2611 80.6523Z" fill="#FFD130"/>
<path d="M3.37937 80.6523C2.29072 80.6523 1.40619 81.5423 1.40619 82.6358C1.40619 83.7294 2.29072 84.6193 3.37937 84.6193C4.46803 84.6193 5.35256 83.7294 5.35256 82.6358C5.35256 81.5423 4.46803 80.6523 3.37937 80.6523Z" fill="#FFD130"/>
<path d="M54.0245 80.6523C52.9358 80.6523 52.0513 81.5423 52.0513 82.6358C52.0513 83.7294 52.9358 84.6193 54.0245 84.6193C55.1131 84.6193 55.9977 83.7294 55.9977 82.6358C55.9977 81.5423 55.1131 80.6523 54.0245 80.6523Z" fill="#FFD130"/>
<path d="M37.1428 80.6523C36.0541 80.6523 35.1696 81.5423 35.1696 82.6358C35.1696 83.7294 36.0541 84.6193 37.1428 84.6193C38.2314 84.6193 39.116 83.7294 39.116 82.6358C39.116 81.5423 38.2314 80.6523 37.1428 80.6523Z" fill="#FFD130"/>
<path d="M3.6591 129.041C2.57044 129.041 1.68591 129.93 1.68591 131.024C1.68591 132.118 2.57044 133.008 3.6591 133.008C4.74775 133.008 5.63229 132.118 5.63229 131.024C5.63229 129.93 4.74775 129.041 3.6591 129.041Z" fill="#FFD130"/>
<path d="M20.2611 112.909C19.1724 112.909 18.2879 113.799 18.2879 114.892C18.2879 115.986 19.1724 116.876 20.2611 116.876C21.3497 116.876 22.2342 115.986 22.2342 114.892C22.2342 113.799 21.3497 112.909 20.2611 112.909Z" fill="#FFD130"/>
<path d="M3.37937 112.909C2.29072 112.909 1.40619 113.799 1.40619 114.892C1.40619 115.986 2.29072 116.876 3.37937 116.876C4.46803 116.876 5.35256 115.986 5.35256 114.892C5.35256 113.799 4.46803 112.909 3.37937 112.909Z" fill="#FFD130"/>
<path d="M70.6264 64.5203C69.5378 64.5203 68.6533 65.4102 68.6533 66.5038C68.6533 67.5973 69.5378 68.4873 70.6264 68.4873C71.7151 68.4873 72.5996 67.5973 72.5996 66.5038C72.5996 65.4102 71.7151 64.5203 70.6264 64.5203Z" fill="#FFD130"/>
<path d="M36.863 64.5203C35.7744 64.5203 34.8899 65.4102 34.8899 66.5038C34.8899 67.5973 35.7744 68.4873 36.863 68.4873C37.9517 68.4873 38.8362 67.5973 38.8362 66.5038C38.8362 65.4102 37.9517 64.5203 36.863 64.5203Z" fill="#FFD130"/>
<path d="M53.7448 68.4873C54.8345 68.4873 55.7179 67.5992 55.7179 66.5038C55.7179 65.4083 54.8345 64.5203 53.7448 64.5203C52.655 64.5203 51.7716 65.4083 51.7716 66.5038C51.7716 67.5992 52.655 68.4873 53.7448 68.4873Z" fill="#FFD130"/>
<path d="M19.9738 64.5203C18.8851 64.5203 18.0006 65.4102 18.0006 66.5038C18.0006 67.5973 18.8851 68.4873 19.9738 68.4873C21.0625 68.4873 21.947 67.5973 21.947 66.5038C21.947 65.4102 21.07 64.5203 19.9738 64.5203Z" fill="#FFD130"/>
<path d="M3.09208 64.5203C2.00343 64.5203 1.1189 65.4102 1.1189 66.5038C1.1189 67.5973 2.00343 68.4873 3.09208 68.4873C4.18074 68.4873 5.06527 67.5973 5.06527 66.5038C5.06527 65.4102 4.18074 64.5203 3.09208 64.5203Z" fill="#FFD130"/>
<path d="M70.3392 48.3884C69.2505 48.3884 68.366 49.2784 68.366 50.3719C68.366 51.4655 69.2505 52.3554 70.3392 52.3554C71.4278 52.3554 72.3123 51.4655 72.3123 50.3719C72.3123 49.2784 71.4278 48.3884 70.3392 48.3884Z" fill="#FFD130"/>
<path d="M53.4575 48.3884C52.3688 48.3884 51.4843 49.2784 51.4843 50.3719C51.4843 51.4655 52.3688 52.3554 53.4575 52.3554C54.5461 52.3554 55.4307 51.4655 55.4307 50.3719C55.4307 49.2784 54.5461 48.3884 53.4575 48.3884Z" fill="#FFD130"/>
<path d="M36.5758 48.3884C35.4871 48.3884 34.6026 49.2784 34.6026 50.3719C34.6026 51.4655 35.4871 52.3554 36.5758 52.3554C37.6644 52.3554 38.5489 51.4655 38.5489 50.3719C38.5489 49.2784 37.6644 48.3884 36.5758 48.3884Z" fill="#FFD130"/>
<path d="M87.2284 48.3884C86.1398 48.3884 85.2552 49.2784 85.2552 50.3719C85.2552 51.4655 86.1398 52.3554 87.2284 52.3554C88.3171 52.3554 89.2016 51.4655 89.2016 50.3719C89.2016 49.2784 88.3171 48.3884 87.2284 48.3884Z" fill="#FFD130"/>
<path d="M2.81236 48.3884C1.7237 48.3884 0.839172 49.2784 0.839172 50.3719C0.839172 51.4655 1.7237 52.3554 2.81236 52.3554C3.90101 52.3554 4.78554 51.4655 4.78554 50.3719C4.78554 49.2784 3.90101 48.3884 2.81236 48.3884Z" fill="#FFD130"/>
<path d="M19.6941 48.3884C18.6054 48.3884 17.7209 49.2784 17.7209 50.3719C17.7209 51.4655 18.6054 52.3554 19.6941 52.3554C20.7827 52.3554 21.6673 51.4655 21.6673 50.3719C21.6673 49.2784 20.7827 48.3884 19.6941 48.3884Z" fill="#FFD130"/>
<path d="M2.53263 32.2563C1.44398 32.2563 0.559448 33.1463 0.559448 34.2398C0.559448 35.3334 1.44398 36.2233 2.53263 36.2233C3.62129 36.2233 4.50582 35.3334 4.50582 34.2398C4.50582 33.1463 3.62129 32.2563 2.53263 32.2563Z" fill="#FFD130"/>
<path d="M70.0594 36.2233C71.1492 36.2233 72.0326 35.3353 72.0326 34.2398C72.0326 33.1444 71.1492 32.2563 70.0594 32.2563C68.9697 32.2563 68.0862 33.1444 68.0862 34.2398C68.0862 35.3353 68.9697 36.2233 70.0594 36.2233Z" fill="#FFD130"/>
<path d="M103.823 36.2233C104.913 36.2233 105.796 35.3353 105.796 34.2398C105.796 33.1444 104.913 32.2563 103.823 32.2563C102.733 32.2563 101.85 33.1444 101.85 34.2398C101.85 35.3353 102.733 36.2233 103.823 36.2233Z" fill="#FFD130"/>
<path d="M53.1777 32.2563C52.0891 32.2563 51.2046 33.1463 51.2046 34.2398C51.2046 35.3334 52.0891 36.2233 53.1777 36.2233C54.2664 36.2233 55.1509 35.3334 55.1509 34.2398C55.1509 33.1463 54.2664 32.2563 53.1777 32.2563Z" fill="#FFD130"/>
<path d="M36.296 32.2563C35.2074 32.2563 34.3228 33.1463 34.3228 34.2398C34.3228 35.3334 35.2074 36.2233 36.296 36.2233C37.3847 36.2233 38.2692 35.3334 38.2692 34.2398C38.2692 33.1463 37.3847 32.2563 36.296 32.2563Z" fill="#FFD130"/>
<path d="M19.4143 32.2563C18.3257 32.2563 17.4412 33.1463 17.4412 34.2398C17.4412 35.3334 18.3257 36.2233 19.4143 36.2233C20.503 36.2233 21.3875 35.3334 21.3875 34.2398C21.3875 33.1463 20.503 32.2563 19.4143 32.2563Z" fill="#FFD130"/>
<path d="M86.9411 32.2563C85.8525 32.2563 84.968 33.1463 84.968 34.2398C84.968 35.3334 85.8525 36.2233 86.9411 36.2233C88.0298 36.2233 88.9143 35.3334 88.9143 34.2398C88.9143 33.1463 88.0298 32.2563 86.9411 32.2563Z" fill="#FFD130"/>
<path d="M2.25291 20.0915C3.34267 20.0915 4.2261 19.2035 4.2261 18.108C4.2261 17.0126 3.34267 16.1245 2.25291 16.1245C1.16315 16.1245 0.279724 17.0126 0.279724 18.108C0.279724 19.2035 1.16315 20.0915 2.25291 20.0915Z" fill="#FFD130"/>
<path d="M86.6614 16.1318C85.5728 16.1318 84.6882 17.0218 84.6882 18.1153C84.6882 19.2089 85.5728 20.0988 86.6614 20.0988C87.7501 20.0988 88.6346 19.2089 88.6346 18.1153C88.6346 17.0218 87.7501 16.1318 86.6614 16.1318Z" fill="#FFD130"/>
<path d="M19.1346 16.1318C18.046 16.1318 17.1614 17.0218 17.1614 18.1153C17.1614 19.2089 18.046 20.0988 19.1346 20.0988C20.2233 20.0988 21.1078 19.2089 21.1078 18.1153C21.1078 17.0218 20.2233 16.1318 19.1346 16.1318Z" fill="#FFD130"/>
<path d="M52.898 16.1318C51.8094 16.1318 50.9248 17.0218 50.9248 18.1153C50.9248 19.2089 51.8094 20.0988 52.898 20.0988C53.9867 20.0988 54.8712 19.2089 54.8712 18.1153C54.8712 17.0218 53.9867 16.1318 52.898 16.1318Z" fill="#FFD130"/>
<path d="M36.0163 16.1318C34.9277 16.1318 34.0431 17.0218 34.0431 18.1153C34.0431 19.2089 34.9277 20.0988 36.0163 20.0988C37.105 20.0988 37.9895 19.2089 37.9895 18.1153C37.9895 17.0218 37.105 16.1318 36.0163 16.1318Z" fill="#FFD130"/>
<path d="M69.7797 16.1318C68.6911 16.1318 67.8065 17.0218 67.8065 18.1153C67.8065 19.2089 68.6911 20.0988 69.7797 20.0988C70.8684 20.0988 71.7529 19.2089 71.7529 18.1153C71.7529 17.0218 70.8684 16.1318 69.7797 16.1318Z" fill="#FFD130"/>
<path d="M120.425 16.1318C119.336 16.1318 118.452 17.0218 118.452 18.1153C118.452 19.2089 119.336 20.0988 120.425 20.0988C121.514 20.0988 122.398 19.2089 122.398 18.1153C122.398 17.0218 121.521 16.1318 120.425 16.1318Z" fill="#FFD130"/>
<path d="M103.543 16.1318C102.454 16.1318 101.57 17.0218 101.57 18.1153C101.57 19.2089 102.454 20.0988 103.543 20.0988C104.632 20.0988 105.516 19.2089 105.516 18.1153C105.516 17.0218 104.639 16.1318 103.543 16.1318Z" fill="#FFD130"/>
<path d="M18.8549 3.95943C19.9436 3.95943 20.8281 3.06949 20.8281 1.97593C20.8281 0.882366 19.9436 -0.00756836 18.8549 -0.00756836C17.7662 -0.00756836 16.8817 0.882366 16.8817 1.97593C16.8817 3.06949 17.7662 3.95943 18.8549 3.95943Z" fill="#FFD130"/>
<path d="M1.97319 3.95946C3.06184 3.95946 3.94637 3.06952 3.94637 1.97596C3.94637 0.882393 3.05428 0 1.97319 0C0.892092 0 0 0.889935 0 1.9835C0 3.07706 0.884532 3.967 1.97319 3.967V3.95946Z" fill="#FFD130"/>
<path d="M120.145 3.967C121.235 3.967 122.118 3.07895 122.118 1.9835C122.118 0.888043 121.235 0 120.145 0C119.055 0 118.172 0.888043 118.172 1.9835C118.172 3.07895 119.055 3.967 120.145 3.967Z" fill="#FFD130"/>
<path d="M69.5 3.95943C70.5886 3.95943 71.4732 3.06949 71.4732 1.97593C71.4732 0.882366 70.5886 -0.00756836 69.5 -0.00756836C68.4113 -0.00756836 67.5268 0.882366 67.5268 1.97593C67.5268 3.06949 68.4113 3.95943 69.5 3.95943Z" fill="#FFD130"/>
<path d="M86.3817 3.95943C87.4703 3.95943 88.3549 3.06949 88.3549 1.97593C88.3549 0.882366 87.4703 -0.00756836 86.3817 -0.00756836C85.293 -0.00756836 84.4085 0.882366 84.4085 1.97593C84.4085 3.06949 85.293 3.95943 86.3817 3.95943Z" fill="#FFD130"/>
<path d="M103.263 3.95943C104.352 3.95943 105.237 3.06949 105.237 1.97593C105.237 0.882366 104.352 -0.00756836 103.263 -0.00756836C102.175 -0.00756836 101.29 0.882366 101.29 1.97593C101.29 3.06949 102.175 3.95943 103.263 3.95943Z" fill="#FFD130"/>
<path d="M35.7366 3.95943C36.8252 3.95943 37.7098 3.06949 37.7098 1.97593C37.7098 0.882366 36.8252 -0.00756836 35.7366 -0.00756836C34.6479 -0.00756836 33.7634 0.882366 33.7634 1.97593C33.7634 3.06949 34.6479 3.95943 35.7366 3.95943Z" fill="#FFD130"/>
<path d="M137.027 3.95943C138.115 3.95943 139 3.06949 139 1.97593C139 0.882366 138.123 -0.00756836 137.027 -0.00756836C135.931 -0.00756836 135.054 0.882366 135.054 1.97593C135.054 3.06949 135.938 3.95943 137.027 3.95943Z" fill="#FFD130"/>
<path d="M52.6183 3.95943C53.707 3.95943 54.5915 3.06949 54.5915 1.97593C54.5915 0.882366 53.707 -0.00756836 52.6183 -0.00756836C51.5296 -0.00756836 50.6451 0.882366 50.6451 1.97593C50.6451 3.06949 51.5296 3.95943 52.6183 3.95943Z" fill="#FFD130"/>
</g>
<defs>
<clipPath id="clip0_1_286">
<rect width="139" height="133" fill="white"/>
</clipPath>
</defs>
</svg>
