<svg width="1440" height="1354" viewBox="0 0 1440 1354" fill="none" xmlns="http://www.w3.org/2000/svg">
<g opacity="0.5" clip-path="url(#clip0_1_245)">
<path d="M-657.598 1246.95C-661.543 1223.68 -648.122 881.904 -523.782 598.924C-412.168 345.266 -152.617 200.697 151.161 383.01C476.647 578.404 757.401 598.053 983.782 541.055C1207.2 484.545 1355.77 314.274 1422.5 205.699C1567.32 -28.9326 1781.25 116.199 1706.1 424.907C1670.65 568.51 1577.18 608.659 1415.21 623.56C1245.91 639.135 995.775 606.074 648.835 673.45C314.245 738.682 -62.2807 895.345 -274.006 1094.76C-499.333 1307.16 -624.564 1450 -657.598 1246.95Z" fill="#F2F0E4"/>
</g>
<defs>
<clipPath id="clip0_1_245">
<rect width="2506.2" height="958.644" fill="white" transform="translate(-796 407.874) rotate(-9.36634)"/>
</clipPath>
</defs>
</svg>
