<svg width="30" height="30" viewBox="0 0 30 30" fill="none" xmlns="http://www.w3.org/2000/svg">
<path fill-rule="evenodd" clip-rule="evenodd" d="M15.0469 0.417725C15.7815 0.417725 16.3771 1.01328 16.3771 1.74794V4.11584C19.8372 4.48248 23.0548 6.26871 25.4684 9.12102C28.183 12.3292 29.6792 16.6394 29.6792 21.0964C29.6792 22.0256 29.3687 22.9524 28.765 23.6658C28.1557 24.386 27.2766 24.8452 26.3025 24.8452H3.79124C2.817 24.8452 1.93811 24.3859 1.32878 23.6659C0.724869 22.9524 0.414551 22.0255 0.414551 21.0964C0.414551 16.6394 1.91076 12.3292 4.6254 9.12102M13.7167 4.11584V1.74794C13.7167 1.01328 14.3122 0.417725 15.0469 0.417725M13.7167 4.11584C10.2565 4.48248 7.03889 6.2687 4.62541 9.12102L13.7167 4.11584ZM15.0469 6.70598C11.9503 6.70598 8.92527 8.158 6.65634 10.8395L6.65633 10.8395C4.3817 13.5277 3.07497 17.2147 3.07497 21.0964C3.07497 21.4503 3.19588 21.7539 3.35954 21.9473C3.51779 22.1343 3.67995 22.1848 3.79124 22.1848H26.3025C26.4138 22.1848 26.576 22.1342 26.7341 21.9474C26.8979 21.7538 27.0188 21.4502 27.0188 21.0964C27.0188 17.2147 25.7121 13.5277 23.4374 10.8395C21.1684 8.158 18.1435 6.70598 15.0469 6.70598ZM0.414551 28.3522C0.414551 27.6175 1.01011 27.0219 1.74476 27.0219H28.349C29.0836 27.0219 29.6792 27.6175 29.6792 28.3522C29.6792 29.0868 29.0836 29.6824 28.349 29.6824H1.74476C1.01011 29.6824 0.414551 29.0868 0.414551 28.3522Z" fill="#F2F0E4"/>
</svg>
