<svg width="20" height="20" viewBox="0 0 20 20" fill="none" xmlns="http://www.w3.org/2000/svg">
<path fill-rule="evenodd" clip-rule="evenodd" d="M11.3621 1.71978C10.0057 1.47962 8.61456 1.60163 7.31071 2.07636C6.00649 2.55123 4.82626 3.36581 3.8778 4.45322C2.92911 5.54089 2.24256 6.8671 1.88375 8.31551C1.40328 10.2552 1.53593 12.3107 2.25921 14.159C2.98231 16.0069 4.25156 17.536 5.85855 18.5171C6.23565 18.7473 6.35471 19.2397 6.12448 19.6168C5.89424 19.9939 5.4019 20.1129 5.0248 19.8827C3.10638 18.7114 1.61401 16.9009 0.769225 14.7421C-0.0753848 12.5837 -0.228915 10.19 0.330692 7.9308L0.330697 7.93079C0.748946 6.24243 1.55167 4.686 2.67201 3.40152C3.7926 2.11677 5.19704 1.1432 6.7633 0.572925C8.32993 0.00251544 10.0061 -0.1452 11.6411 0.144299C13.2758 0.433759 14.8136 1.15035 16.1187 2.22509C17.4235 3.29955 18.4549 4.69815 19.126 6.29322C19.7971 7.88813 20.0886 9.63322 19.9766 11.3742C19.8647 13.1153 19.3524 14.8028 18.482 16.2867C17.6114 17.7709 16.4082 19.0078 14.975 19.8827C14.5979 20.1129 14.1056 19.9938 13.8753 19.6167C13.6451 19.2396 13.7642 18.7473 14.1413 18.5171C15.3418 17.7842 16.3603 16.7415 17.1018 15.4773C17.8435 14.2128 18.2837 12.768 18.3799 11.2716C18.4762 9.77507 18.2252 8.27777 17.6512 6.91373C17.0774 5.54984 16.1999 4.36463 15.1016 3.46019C14.0036 2.55604 12.7187 1.95999 11.3621 1.71978ZM10 7.19996C8.26767 7.19996 6.752 8.74762 6.752 10.7999C6.752 12.8523 8.26767 14.3999 10 14.3999C11.7323 14.3999 13.248 12.8523 13.248 10.7999C13.248 8.74762 11.7323 7.19996 10 7.19996ZM5.152 10.7999C5.152 7.99218 7.26103 5.59997 10 5.59997C12.739 5.59997 14.848 7.99218 14.848 10.7999C14.848 13.6077 12.739 15.9999 10 15.9999C7.26103 15.9999 5.152 13.6077 5.152 10.7999Z" fill="#FFD130"/>
</svg>
