<svg width="30" height="30" viewBox="0 0 30 30" fill="none" xmlns="http://www.w3.org/2000/svg">
<path fill-rule="evenodd" clip-rule="evenodd" d="M14.628 0.126955C22.6111 0.122448 29.2647 6.79046 29.2647 14.7592C29.2647 22.7381 22.6113 29.3862 14.6275 29.3807L14.6285 28.0505L14.6275 29.3807C12.5742 29.3794 10.5176 28.9519 8.61684 28.0951L1.56701 29.3703C1.0959 29.4556 0.615341 29.2811 0.308694 28.9134C0.00204736 28.5457 -0.0833749 28.0417 0.0850221 27.5935L2.08269 22.277C0.726235 20.0095 0.00416899 17.4001 0.00415583 14.7592C0.00412 6.78659 6.64971 0.129646 14.6277 0.126956M26.6042 14.7592C26.6042 8.25772 21.14 2.78353 14.6292 2.78738L14.6289 2.78738C8.12122 2.7894 2.66455 8.25397 2.66458 14.7592C2.66459 17.1074 3.36393 19.4291 4.6679 21.39C4.90467 21.746 4.95585 22.1942 4.80545 22.5945L3.39986 26.3352L8.5609 25.4016C8.83972 25.3512 9.12736 25.3911 9.38191 25.5155C11.0188 26.3158 12.8217 26.7191 14.6293 26.7203H14.6294C21.1438 26.7248 26.6042 21.2674 26.6042 14.7592ZM9.01919 8.34742C10.2903 6.83849 12.2875 7.26968 13.3552 8.24469L13.3553 8.24471L15.0491 9.79148C15.3173 10.0364 15.4737 10.3804 15.4819 10.7435C15.4902 11.1066 15.3496 11.4574 15.0928 11.7142C14.9729 11.8342 14.7506 12.163 14.6332 12.5524C14.5131 12.9507 14.5802 13.1311 14.6104 13.1781M9.01919 8.34742C8.28873 9.2145 7.686 10.3132 7.39869 11.4452C7.11523 12.5621 7.10006 13.8921 7.82561 15.0224C9.57021 17.7405 11.9609 20.0155 14.6416 21.7368C17.1906 23.3736 19.7374 22.067 21.1367 21.023C22.8209 19.7665 22.5946 17.5128 21.4127 16.2541L20.443 17.1647L21.4127 16.2541L19.8931 14.6359C19.6466 14.3734 19.3042 14.222 18.9442 14.2164C18.5841 14.2108 18.2372 14.3513 17.9826 14.606C17.905 14.6836 17.7151 14.8033 17.4342 14.8742C17.153 14.9452 16.932 14.9292 16.8306 14.8983L16.8306 14.8983C16.1536 14.6922 15.7255 14.4307 15.4199 14.1676C15.1063 13.8975 14.8693 13.5815 14.6104 13.1782M11.0888 10.0322C11.0841 10.0342 11.0729 10.0388 11.0539 10.0615L11.0538 10.0615C10.5516 10.6577 10.1546 11.4014 9.97736 12.0997C9.79629 12.8131 9.88212 13.3012 10.0645 13.5854L8.94506 14.3039L10.0645 13.5854C11.5797 15.9461 13.6822 17.9592 16.0791 19.4982L16.0791 19.4982C17.1282 20.1718 18.3327 19.7957 19.5459 18.8906C19.6375 18.8222 19.6871 18.7307 19.6895 18.5927C19.6922 18.438 19.6286 18.2407 19.4733 18.0753L18.6982 17.2499C18.4943 17.3351 18.2877 17.4026 18.0854 17.4537C17.4658 17.6101 16.7348 17.6501 16.0558 17.4434C15.0552 17.1388 14.2925 16.7076 13.6839 16.1836C13.0835 15.6665 12.6831 15.1008 12.3714 14.615L12.3714 14.615C11.7462 13.6408 11.8558 12.5482 12.086 11.7845C12.1696 11.507 12.2795 11.2361 12.407 10.9816L11.5613 10.2093C11.5613 10.2092 11.5613 10.2092 11.5613 10.2092C11.4157 10.0763 11.2598 10.0268 11.163 10.0231C11.1192 10.0214 11.0965 10.029 11.0888 10.0322L11.0888 10.0322Z" fill="#F2F0E4"/>
</svg>
